<svg width="24" height="34" viewBox="0 0 24 34" fill="none" xmlns="http://www.w3.org/2000/svg">
<g id="_x37_7_Essential_Icons">
<path id="Location_Pin" d="M11.9998 0.199951C5.8398 0.199951 0.799805 5.15995 0.799805 11.28C0.799805 24.32 11.0398 33.24 11.4798 33.64C11.7598 33.88 12.2398 33.88 12.5198 33.64C12.9598 33.24 23.1998 24.28 23.1998 11.28C23.1998 5.15995 18.1598 0.199951 11.9998 0.199951ZM11.9998 31.92C9.9198 29.92 2.3998 21.92 2.3998 11.28C2.3998 6.03995 6.7198 1.79995 11.9998 1.79995C17.2798 1.79995 21.5998 6.03995 21.5998 11.28C21.5998 21.92 14.0798 29.92 11.9998 31.92ZM11.9998 4.99995C8.4798 4.99995 5.5998 7.87995 5.5998 11.4C5.5998 14.92 8.4798 17.8 11.9998 17.8C15.5198 17.8 18.3998 14.92 18.3998 11.4C18.3998 7.87995 15.5198 4.99995 11.9998 4.99995ZM11.9998 16.2C9.3598 16.2 7.1998 14.04 7.1998 11.4C7.1998 8.75995 9.3598 6.59995 11.9998 6.59995C14.6398 6.59995 16.7998 8.75995 16.7998 11.4C16.7998 14.04 14.6398 16.2 11.9998 16.2Z" fill="black"/>
</g>
</svg>
