<svg width="40" height="40" viewBox="0 0 40 40" fill="none" xmlns="http://www.w3.org/2000/svg">
<g id="People">
<path id="Vector" d="M21.2395 20C23.3105 20 24.9895 21.6789 24.9895 23.75L24.9875 25.6209C25.2447 30.2123 21.7083 32.502 15.1505 32.502C8.6138 32.502 5 30.2423 5 25.6864V23.75C5 21.6789 6.67893 20 8.75 20H21.2395ZM31.241 20C33.312 20 34.991 21.6789 34.991 23.75L34.9891 25.0664C35.2151 29.1851 32.0904 31.25 26.379 31.25C25.6037 31.25 24.8748 31.2122 24.1941 31.1366C24.9208 30.4682 25.4621 29.6703 25.807 28.7434L26.379 28.75C30.8395 28.75 32.6228 27.5715 32.491 25.1349V23.75C32.491 23.0596 31.9313 22.5 31.241 22.5L26.0819 22.5C25.8288 21.5167 25.2842 20.6505 24.5456 19.999L31.241 20ZM21.2395 22.5H8.75C8.05964 22.5 7.5 23.0596 7.5 23.75V25.6864C7.5 28.5514 9.81986 30.002 15.1505 30.002C20.4599 30.002 22.6496 28.5843 22.4895 25.6908V23.75C22.4895 23.0596 21.9298 22.5 21.2395 22.5ZM15 5C18.4523 5 21.251 7.79867 21.251 11.251C21.251 14.7034 18.4523 17.502 15 17.502C11.5477 17.502 8.74899 14.7034 8.74899 11.251C8.74899 7.79867 11.5477 5 15 5ZM27.5 7.5C30.2614 7.5 32.5 9.73858 32.5 12.5C32.5 15.2614 30.2614 17.5 27.5 17.5C24.7386 17.5 22.5 15.2614 22.5 12.5C22.5 9.73858 24.7386 7.5 27.5 7.5ZM15 7.5C12.9284 7.5 11.249 9.17939 11.249 11.251C11.249 13.3226 12.9284 15.002 15 15.002C17.0716 15.002 18.751 13.3226 18.751 11.251C18.751 9.17939 17.0716 7.5 15 7.5ZM27.5 10C26.1193 10 25 11.1193 25 12.5C25 13.8807 26.1193 15 27.5 15C28.8807 15 30 13.8807 30 12.5C30 11.1193 28.8807 10 27.5 10Z" fill="black"/>
</g>
</svg>
