<svg width="18" height="18" viewBox="0 0 18 18" fill="none" xmlns="http://www.w3.org/2000/svg">
<path id="Union" fill-rule="evenodd" clip-rule="evenodd" d="M16.8236 1.89303C17.2028 1.4915 17.1847 0.858593 16.7832 0.479389C16.3817 0.100186 15.7487 0.118281 15.3695 0.519806L8.94679 7.32063L2.47869 0.852539C2.08817 0.462015 1.455 0.462015 1.06448 0.852539C0.673955 1.24306 0.673955 1.87623 1.06448 2.26675L7.57301 8.77528L0.944851 15.7936C0.565647 16.1951 0.583742 16.828 0.985268 17.2072C1.38679 17.5864 2.0197 17.5683 2.3989 17.1668L8.9878 10.1901L15.9137 17.116C16.3042 17.5065 16.9374 17.5065 17.3279 17.116C17.7185 16.7255 17.7185 16.0923 17.3279 15.7018L10.3616 8.73542L16.8236 1.89303Z" fill="white"/>
</svg>
