<svg width="22" height="24" viewBox="0 0 22 24" fill="none" xmlns="http://www.w3.org/2000/svg">
<path id="file" d="M7.90249 13.4229C7.8149 13.3426 7.7451 13.2455 7.69743 13.1377C7.64975 13.0298 7.62522 12.9135 7.62536 12.796C7.6255 12.6785 7.6503 12.5623 7.69822 12.4546C7.74615 12.3468 7.81618 12.2499 7.90395 12.1698C7.99173 12.0897 8.09538 12.0282 8.20847 11.989C8.32156 11.9498 8.44167 11.9338 8.56134 11.942C8.68101 11.9501 8.79768 11.9823 8.90411 12.0366C9.01053 12.0908 9.10444 12.1659 9.17999 12.2571L10.125 13.2429V9.42858C10.125 9.20125 10.2172 8.98323 10.3813 8.82249C10.5454 8.66174 10.7679 8.57144 11 8.57144C11.2321 8.57144 11.4546 8.66174 11.6187 8.82249C11.7828 8.98323 11.875 9.20125 11.875 9.42858V13.2429L12.82 12.2571C12.8955 12.1659 12.9895 12.0908 13.0959 12.0366C13.2023 11.9823 13.319 11.9501 13.4386 11.942C13.5583 11.9338 13.6784 11.9498 13.7915 11.989C13.9046 12.0282 14.0083 12.0897 14.096 12.1698C14.1838 12.2499 14.2538 12.3468 14.3018 12.4546C14.3497 12.5623 14.3745 12.6785 14.3746 12.796C14.3748 12.9135 14.3502 13.0298 14.3026 13.1377C14.2549 13.2455 14.1851 13.3426 14.0975 13.4229L11.6387 15.9943C11.5976 16.0307 11.5502 16.0597 11.4987 16.08L11.4112 16.14C11.3095 16.185 11.1991 16.2082 11.0875 16.2082C10.9759 16.2082 10.8655 16.185 10.7637 16.14L10.6762 16.08C10.6248 16.0597 10.5774 16.0307 10.5362 15.9943L7.90249 13.4229ZM13.625 17.1429H8.37499C8.14293 17.1429 7.92037 17.2332 7.75628 17.3939C7.59218 17.5547 7.5 17.7727 7.5 18C7.5 18.2273 7.59218 18.4454 7.75628 18.6061C7.92037 18.7668 8.14293 18.8571 8.37499 18.8571H13.625C13.8571 18.8571 14.0796 18.7668 14.2437 18.6061C14.4078 18.4454 14.5 18.2273 14.5 18C14.5 17.7727 14.4078 17.5547 14.2437 17.3939C14.0796 17.2332 13.8571 17.1429 13.625 17.1429ZM21.5 7.7143V19.7143C21.5 20.8509 21.039 21.941 20.2186 22.7447C19.3981 23.5485 18.2853 24 17.125 24H4.875C3.71468 24 2.60188 23.5485 1.78141 22.7447C0.960936 21.941 0.5 20.8509 0.5 19.7143V4.28573C0.5 3.14908 0.960936 2.059 1.78141 1.25527C2.60188 0.451543 3.71468 1.43265e-05 4.875 1.43265e-05H13.625C13.7401 -0.000637867 13.8543 0.0209836 13.9609 0.0636389C14.0675 0.106294 14.1645 0.169144 14.2462 0.248586L21.2462 7.10572C21.3273 7.18582 21.3915 7.2808 21.435 7.38523C21.4786 7.48967 21.5007 7.60149 21.5 7.7143ZM14.5 6.1543C14.5 6.34071 14.5756 6.51948 14.7101 6.65129C14.8447 6.7831 15.0272 6.85715 15.2175 6.85715H18.5162L14.5 2.92287V6.1543ZM19.75 19.7143V8.57144H15.2175C14.8935 8.57144 14.5726 8.50892 14.2732 8.38744C13.9738 8.26597 13.7018 8.08793 13.4727 7.86347C13.2436 7.63902 13.0618 7.37256 12.9378 7.0793C12.8138 6.78604 12.75 6.47172 12.75 6.1543V1.7143H4.875C4.1788 1.7143 3.51113 1.98522 3.01884 2.46745C2.52656 2.94969 2.25 3.60374 2.25 4.28573V19.7143C2.25 20.3963 2.52656 21.0503 3.01884 21.5326C3.51113 22.0148 4.1788 22.2857 4.875 22.2857H17.125C17.8212 22.2857 18.4889 22.0148 18.9811 21.5326C19.4734 21.0503 19.75 20.3963 19.75 19.7143Z" fill="#141414"/>
</svg>
