<svg width="64" height="64" viewBox="0 0 64 64" fill="none" xmlns="http://www.w3.org/2000/svg">
<g id="Hand" clip-path="url(#clip0_54_265)">
<path id="Vector" d="M57.25 28.104C55.4973 23.8265 53.9666 19.4613 52.664 15.026C52.4274 14.146 52.2306 13.2557 52.074 12.358C51.384 8.778 50.344 3.366 45.172 3.308C42.852 3.308 40.878 4.802 39.878 7.262L39.542 6.53C39.092 5.548 38.63 4.534 38.044 3.558C37.432 2.54017 36.6171 1.65922 35.65 0.969999C34.058 -0.158001 32.062 -0.304001 30.67 0.635999C29.798 1.222 29.14 2.174 28.818 3.318C28.418 4.746 28.456 6.23 28.6 7.532C28.474 7.312 28.346 7.082 28.216 6.848C27.146 4.916 25.678 2.272 22.598 1.904C20.558 1.666 18.474 2.618 17.406 4.294C16.532 5.668 16.516 7.124 16.772 8.424C16.4575 8.22966 16.1229 8.07006 15.774 7.948C15.2858 7.77475 14.772 7.68483 14.254 7.682C10.868 7.682 9.03396 11.526 8.81196 14.256C8.55396 17.458 9.74596 20.412 10.988 23.164C11.566 24.448 12.172 25.718 12.778 26.992C13.208 27.896 13.638 28.798 14.06 29.71C14.338 30.304 14.608 30.9 14.874 31.5C13.6573 31.0042 12.4051 30.6004 11.128 30.292C8.47396 29.692 5.25996 30.692 3.48996 32.658C2.38596 33.878 1.86796 35.4 2.02996 36.94C2.31796 39.69 4.57396 41.564 5.92396 42.682L20.096 54.436C23.978 57.654 28.38 61.304 33.786 63C35.902 63.664 38.13 64 40.41 64C44.578 64 48.762 62.834 52.188 60.716C57.34 57.532 60.938 52.004 61.814 45.928L61.882 45.382C62.508 39.902 60.538 35.514 58.634 31.27C58.1545 30.2227 57.6931 29.1672 57.25 28.104ZM57.904 44.942L57.85 45.362C57.144 50.276 54.24 54.744 50.084 57.314C47.28 59.046 43.844 60 40.408 60C38.569 60.0055 36.7399 59.7303 34.984 59.184C30.326 57.722 26.424 54.486 22.65 51.356L8.47796 39.604C7.28596 38.616 6.11396 37.564 6.00596 36.524C5.98996 36.372 5.94396 35.908 6.45996 35.334C7.12196 34.6 8.32996 34.108 9.46596 34.108C9.73796 34.108 10.002 34.136 10.2 34.182C12.176 34.676 13.672 35.246 14.902 35.968L15.172 36.15C16.214 36.87 17.158 37.464 18.166 37.464C18.91 37.464 19.586 37.134 20.022 36.558C20.524 35.892 20.632 35.03 20.336 33.992C20.1442 33.3707 19.8888 32.7709 19.574 32.202C19.448 31.958 19.32 31.714 19.214 31.464C18.7286 30.3065 18.2199 29.1589 17.688 28.022C17.262 27.102 16.826 26.186 16.39 25.268C15.796 24.02 15.202 22.774 14.634 21.514C13.606 19.24 12.618 16.83 12.8 14.576C12.918 13.112 13.804 11.682 14.254 11.682C14.3244 11.6852 14.3939 11.6994 14.46 11.724C14.966 11.9 15.502 12.634 16.02 13.344C16.224 13.624 16.424 13.898 16.628 14.152C19.244 17.42 21.42 21.074 23.36 24.418C23.706 25.122 24.026 25.676 24.378 26.182C24.6658 26.6134 25.1103 26.9158 25.6173 27.0252C26.1242 27.1345 26.6538 27.0423 27.094 26.768C28.01 26.198 28.308 25 27.77 24.066L26.95 22.654C26.8098 22.3654 26.6724 22.0754 26.538 21.784L26.244 21.152C25.4139 19.4032 24.6184 17.6382 23.858 15.858L23.308 14.578C22.626 13.002 21.982 11.512 21.446 9.972L21.228 9.364C20.74 8.014 20.42 7.014 20.782 6.446C21.006 6.09 21.462 5.832 22.126 5.88C23.096 5.996 23.814 7.16 24.718 8.792C24.904 9.126 25.084 9.452 25.264 9.754C26.346 11.574 27.38 13.488 28.38 15.338L29.098 16.668C29.444 17.306 29.778 17.968 30.112 18.632C30.98 20.348 31.876 22.124 33.062 23.714C33.339 24.0803 33.7334 24.3403 34.1791 24.4506C34.6249 24.5608 35.0951 24.5147 35.5109 24.3198C35.9267 24.1249 36.263 23.7931 36.4634 23.3799C36.6638 22.9667 36.7163 22.4972 36.612 22.05C36.5246 21.6815 36.4184 21.3177 36.294 20.96L35.898 19.86C35.6659 19.1992 35.4392 18.5365 35.218 17.872C34.8183 16.6779 34.4435 15.4757 34.094 14.266C33.432 11.958 33.022 10.176 32.762 8.488C32.568 7.206 32.324 5.612 32.666 4.404C32.734 4.156 32.83 4.024 32.81 4C32.9999 4.03799 33.1789 4.11794 33.334 4.234C33.838 4.592 34.292 5.08 34.61 5.614C35.082 6.4 35.48 7.272 35.902 8.192C36.188 8.816 36.472 9.436 36.778 10.038C37.172 10.806 38.004 13.178 38.672 15.084C39.342 16.994 39.922 18.644 40.306 19.48C40.5163 19.9667 40.9113 20.3499 41.4042 20.5453C41.897 20.7407 42.4473 20.7323 42.934 20.522C43.4206 20.3117 43.8038 19.9167 43.9992 19.4238C44.1946 18.931 44.1863 18.3807 43.976 17.894C43.732 17.09 42.968 12.358 42.95 11.644C43.018 10.844 43.176 10.038 43.434 9.18C43.492 8.988 44.034 7.308 45.186 7.308C46.762 7.326 47.372 9.114 48.144 13.114C48.352 14.194 48.546 15.212 48.822 16.152C50.1647 20.7196 51.7421 25.2149 53.548 29.62C54.008 30.748 54.5 31.836 54.98 32.908C56.82 37.004 58.408 40.54 57.904 44.942Z" fill="#141414"/>
<path id="Vector_2" d="M50.4879 37.934C50.2645 38.0765 50.1067 38.3019 50.0493 38.5607C49.992 38.8194 50.0396 39.0904 50.1819 39.314C51.9259 42.056 51.6759 45.608 49.5579 48.152C49.4024 48.3569 49.3317 48.6139 49.3608 48.8695C49.3898 49.1251 49.5162 49.3597 49.7137 49.5245C49.9112 49.6893 50.1647 49.7717 50.4214 49.7545C50.678 49.7372 50.9182 49.6217 51.0919 49.432C53.7699 46.218 54.0799 41.72 51.8679 38.24C51.7251 38.0169 51.4997 37.8595 51.2411 37.8022C50.9825 37.7448 50.7117 37.7922 50.4879 37.934Z" fill="#141414"/>
</g>
<defs>
<clipPath id="clip0_54_265">
<rect width="64" height="64" fill="white"/>
</clipPath>
</defs>
</svg>
