<svg width="41" height="41" viewBox="0 0 41 41" fill="none" xmlns="http://www.w3.org/2000/svg">
<circle opacity="0.2" cx="20.5" cy="20.5" r="20" stroke="white"/>
<path d="M20.8926 16.8145C18.6426 16.8145 16.8496 18.6426 16.8496 20.8574C16.8496 23.1074 18.6426 24.9004 20.8926 24.9004C23.1074 24.9004 24.9355 23.1074 24.9355 20.8574C24.9355 18.6426 23.1074 16.8145 20.8926 16.8145ZM20.8926 23.4941C19.4512 23.4941 18.2559 22.334 18.2559 20.8574C18.2559 19.416 19.416 18.2559 20.8926 18.2559C22.334 18.2559 23.4941 19.416 23.4941 20.8574C23.4941 22.334 22.334 23.4941 20.8926 23.4941ZM26.0254 16.6738C26.0254 16.1465 25.6035 15.7246 25.0762 15.7246C24.5488 15.7246 24.127 16.1465 24.127 16.6738C24.127 17.2012 24.5488 17.623 25.0762 17.623C25.6035 17.623 26.0254 17.2012 26.0254 16.6738ZM28.6973 17.623C28.627 16.3574 28.3457 15.2324 27.4316 14.3184C26.5176 13.4043 25.3926 13.123 24.127 13.0527C22.8262 12.9824 18.9238 12.9824 17.623 13.0527C16.3574 13.123 15.2676 13.4043 14.3184 14.3184C13.4043 15.2324 13.123 16.3574 13.0527 17.623C12.9824 18.9238 12.9824 22.8262 13.0527 24.127C13.123 25.3926 13.4043 26.4824 14.3184 27.4316C15.2676 28.3457 16.3574 28.627 17.623 28.6973C18.9238 28.7676 22.8262 28.7676 24.127 28.6973C25.3926 28.627 26.5176 28.3457 27.4316 27.4316C28.3457 26.4824 28.627 25.3926 28.6973 24.127C28.7676 22.8262 28.7676 18.9238 28.6973 17.623ZM27.0098 25.498C26.7637 26.2012 26.2012 26.7285 25.5332 27.0098C24.4785 27.4316 22.0176 27.3262 20.8926 27.3262C19.7324 27.3262 17.2715 27.4316 16.252 27.0098C15.5488 26.7285 15.0215 26.2012 14.7402 25.498C14.3184 24.4785 14.4238 22.0176 14.4238 20.8574C14.4238 19.7324 14.3184 17.2715 14.7402 16.2168C15.0215 15.5488 15.5488 15.0215 16.252 14.7402C17.2715 14.3184 19.7324 14.4238 20.8926 14.4238C22.0176 14.4238 24.4785 14.3184 25.5332 14.7402C26.2012 14.9863 26.7285 15.5488 27.0098 16.2168C27.4316 17.2715 27.3262 19.7324 27.3262 20.8574C27.3262 22.0176 27.4316 24.4785 27.0098 25.498Z" fill="white"/>
</svg>
