<svg width="65" height="64" viewBox="0 0 65 64" fill="none" xmlns="http://www.w3.org/2000/svg">
<g id="Left">
<path id="Vector" d="M37.5562 43.4557C37.3002 43.7117 36.9802 43.8397 36.6602 43.8397C36.3402 43.8397 36.0202 43.7117 35.7642 43.4557L24.8842 32.6397C24.3722 32.1277 24.3722 31.3597 24.8842 30.8477L35.1882 20.5437C35.7002 20.0317 36.5322 20.0317 36.9802 20.5437C37.4922 21.0557 37.4922 21.8237 36.9802 22.3357L27.6362 31.7437L37.5562 41.6637C38.0042 42.1757 38.0042 42.9437 37.5562 43.4557ZM56.8202 31.9997C56.8202 45.4397 45.9402 56.3197 32.5002 56.3197C19.0602 56.3197 8.18018 45.4397 8.18018 31.9997C8.18018 18.5597 19.0602 7.67969 32.5002 7.67969C45.9402 7.67969 56.8202 18.5597 56.8202 31.9997ZM54.2602 31.9997C54.2602 19.9677 44.5322 10.2397 32.5002 10.2397C20.4682 10.2397 10.7402 19.9677 10.7402 31.9997C10.7402 44.0317 20.4682 53.7597 32.5002 53.7597C44.5322 53.7597 54.2602 44.0317 54.2602 31.9997Z" fill="black"/>
</g>
</svg>
