<svg width="32" height="32" viewBox="0 0 32 32" fill="none" xmlns="http://www.w3.org/2000/svg">
<g id="Loading">
<path id="Vector" d="M23.7333 10.9333C25.2061 10.9333 26.4 9.7394 26.4 8.26664C26.4 6.79388 25.2061 5.59998 23.7333 5.59998C22.2606 5.59998 21.0667 6.79388 21.0667 8.26664C21.0667 9.7394 22.2606 10.9333 23.7333 10.9333Z" fill="white" fill-opacity="0.9"/>
<path id="Vector_2" d="M16 8.00002C17.4727 8.00002 18.6666 6.80611 18.6666 5.33335C18.6666 3.86059 17.4727 2.66669 16 2.66669C14.5272 2.66669 13.3333 3.86059 13.3333 5.33335C13.3333 6.80611 14.5272 8.00002 16 8.00002Z" fill="white" fill-opacity="0.8"/>
<path id="Vector_3" d="M8.26664 10.9333C9.7394 10.9333 10.9333 9.7394 10.9333 8.26664C10.9333 6.79388 9.7394 5.59998 8.26664 5.59998C6.79388 5.59998 5.59998 6.79388 5.59998 8.26664C5.59998 9.7394 6.79388 10.9333 8.26664 10.9333Z" fill="white" fill-opacity="0.7"/>
<path id="Vector_4" d="M5.33335 18.6666C6.80611 18.6666 8.00002 17.4727 8.00002 16C8.00002 14.5272 6.80611 13.3333 5.33335 13.3333C3.86059 13.3333 2.66669 14.5272 2.66669 16C2.66669 17.4727 3.86059 18.6666 5.33335 18.6666Z" fill="white" fill-opacity="0.6"/>
<path id="Vector_5" d="M8.26664 26.1333C9.7394 26.1333 10.9333 24.9394 10.9333 23.4667C10.9333 21.9939 9.7394 20.8 8.26664 20.8C6.79388 20.8 5.59998 21.9939 5.59998 23.4667C5.59998 24.9394 6.79388 26.1333 8.26664 26.1333Z" fill="white" fill-opacity="0.5"/>
<path id="Vector_6" d="M16 29.3333C17.4727 29.3333 18.6666 28.1394 18.6666 26.6667C18.6666 25.1939 17.4727 24 16 24C14.5272 24 13.3333 25.1939 13.3333 26.6667C13.3333 28.1394 14.5272 29.3333 16 29.3333Z" fill="white" fill-opacity="0.4"/>
<path id="Vector_7" d="M23.7333 26.1333C25.2061 26.1333 26.4 24.9394 26.4 23.4667C26.4 21.9939 25.2061 20.8 23.7333 20.8C22.2606 20.8 21.0667 21.9939 21.0667 23.4667C21.0667 24.9394 22.2606 26.1333 23.7333 26.1333Z" fill="white" fill-opacity="0.3"/>
<path id="Vector_8" d="M26.6667 18.6666C28.1394 18.6666 29.3333 17.4727 29.3333 16C29.3333 14.5272 28.1394 13.3333 26.6667 13.3333C25.1939 13.3333 24 14.5272 24 16C24 17.4727 25.1939 18.6666 26.6667 18.6666Z" fill="white" fill-opacity="0.2"/>
</g>
</svg>
