<svg width="33" height="32" viewBox="0 0 33 32" fill="none" xmlns="http://www.w3.org/2000/svg">
<g id="Loading">
<path id="Vector" d="M24.2333 10.9334C25.7061 10.9334 26.9 9.73952 26.9 8.26676C26.9 6.794 25.7061 5.6001 24.2333 5.6001C22.7606 5.6001 21.5667 6.794 21.5667 8.26676C21.5667 9.73952 22.7606 10.9334 24.2333 10.9334Z" fill="black" fill-opacity="0.9"/>
<path id="Vector_2" d="M16.5 8.00008C17.9728 8.00008 19.1667 6.80617 19.1667 5.33341C19.1667 3.86066 17.9728 2.66675 16.5 2.66675C15.0273 2.66675 13.8334 3.86066 13.8334 5.33341C13.8334 6.80617 15.0273 8.00008 16.5 8.00008Z" fill="black" fill-opacity="0.8"/>
<path id="Vector_3" d="M8.76664 10.9334C10.2394 10.9334 11.4333 9.73952 11.4333 8.26676C11.4333 6.794 10.2394 5.6001 8.76664 5.6001C7.29388 5.6001 6.09998 6.794 6.09998 8.26676C6.09998 9.73952 7.29388 10.9334 8.76664 10.9334Z" fill="black" fill-opacity="0.7"/>
<path id="Vector_4" d="M5.83329 18.6666C7.30605 18.6666 8.49996 17.4727 8.49996 15.9999C8.49996 14.5272 7.30605 13.3333 5.83329 13.3333C4.36053 13.3333 3.16663 14.5272 3.16663 15.9999C3.16663 17.4727 4.36053 18.6666 5.83329 18.6666Z" fill="black" fill-opacity="0.6"/>
<path id="Vector_5" d="M8.76664 26.1334C10.2394 26.1334 11.4333 24.9395 11.4333 23.4667C11.4333 21.994 10.2394 20.8 8.76664 20.8C7.29388 20.8 6.09998 21.994 6.09998 23.4667C6.09998 24.9395 7.29388 26.1334 8.76664 26.1334Z" fill="black" fill-opacity="0.5"/>
<path id="Vector_6" d="M16.5 29.3333C17.9728 29.3333 19.1667 28.1394 19.1667 26.6667C19.1667 25.1939 17.9728 24 16.5 24C15.0273 24 13.8334 25.1939 13.8334 26.6667C13.8334 28.1394 15.0273 29.3333 16.5 29.3333Z" fill="black" fill-opacity="0.4"/>
<path id="Vector_7" d="M24.2333 26.1334C25.7061 26.1334 26.9 24.9395 26.9 23.4667C26.9 21.994 25.7061 20.8 24.2333 20.8C22.7606 20.8 21.5667 21.994 21.5667 23.4667C21.5667 24.9395 22.7606 26.1334 24.2333 26.1334Z" fill="black" fill-opacity="0.3"/>
<path id="Vector_8" d="M27.1667 18.6666C28.6394 18.6666 29.8333 17.4727 29.8333 15.9999C29.8333 14.5272 28.6394 13.3333 27.1667 13.3333C25.6939 13.3333 24.5 14.5272 24.5 15.9999C24.5 17.4727 25.6939 18.6666 27.1667 18.6666Z" fill="black" fill-opacity="0.2"/>
</g>
</svg>
