<svg width="128" height="90" viewBox="0 0 128 90" fill="none" xmlns="http://www.w3.org/2000/svg">
<g id="Lock">
<rect x="0.5" width="127" height="90" rx="45" fill="#141414"/>
<path id="Union" d="M63.5006 30C58.4404 30 54.3231 33.4623 54.3231 37.7176V42.1039C53.5291 42.2342 52.8136 42.5922 52.2987 43.1169C51.7838 43.6415 51.5015 44.3003 51.5 44.9805V56.4C51.5 58.0172 53.0639 59.3333 54.9882 59.3333H72.0118C73.9361 59.3333 75.5 58.0172 75.5 56.4V44.9805C75.4985 44.3003 75.2162 43.6415 74.7013 43.1169C74.1864 42.5922 73.4709 42.2342 72.6769 42.1039V37.7176C72.678 33.4623 68.5608 30 63.5006 30ZM56.6486 37.7176C56.6486 34.5398 59.7217 31.9556 63.5006 31.9556C67.2795 31.9556 70.3526 34.5408 70.3526 37.7176V42.0472H56.6486V37.7176ZM73.1757 44.9805V56.4C73.1757 56.9388 72.6548 57.3778 72.013 57.3778H54.9894C54.3475 57.3778 53.8266 56.9388 53.8266 56.4V44.9805C53.8266 44.4418 54.3475 44.0028 54.9894 44.0028H72.0118C72.6536 44.0028 73.1757 44.4418 73.1757 44.9805Z" fill="#FFFEFE"/>
</g>
</svg>
