<svg width="65" height="64" viewBox="0 0 65 64" fill="none" xmlns="http://www.w3.org/2000/svg">
<g id="Left">
<path id="Vector" d="M27.4438 20.5443C27.6998 20.2883 28.0198 20.1603 28.3398 20.1603C28.6598 20.1603 28.9798 20.2883 29.2358 20.5443L40.1158 31.3603C40.6278 31.8723 40.6278 32.6403 40.1158 33.1523L29.8118 43.4563C29.2998 43.9683 28.4678 43.9683 28.0198 43.4563C27.5078 42.9443 27.5078 42.1763 28.0198 41.6643L37.3638 32.2563L27.4438 22.3363C26.9958 21.8243 26.9958 21.0563 27.4438 20.5443ZM8.17983 32.0003C8.17983 18.5603 19.0598 7.68031 32.4998 7.68031C45.9398 7.68031 56.8198 18.5603 56.8198 32.0003C56.8198 45.4403 45.9398 56.3203 32.4998 56.3203C19.0598 56.3203 8.17983 45.4403 8.17983 32.0003ZM10.7398 32.0003C10.7398 44.0323 20.4678 53.7603 32.4998 53.7603C44.5318 53.7603 54.2598 44.0323 54.2598 32.0003C54.2598 19.9683 44.5318 10.2403 32.4998 10.2403C20.4678 10.2403 10.7398 19.9683 10.7398 32.0003Z" fill="black"/>
</g>
</svg>
