<svg width="41" height="41" viewBox="0 0 41 41" fill="none" xmlns="http://www.w3.org/2000/svg">
<circle opacity="0.2" cx="20.5" cy="20.5" r="20" stroke="white"/>
<path d="M27.3438 17.2188C27.9688 16.75 28.5312 16.1875 28.9688 15.5312C28.4062 15.7812 27.75 15.9688 27.0938 16.0312C27.7812 15.625 28.2812 15 28.5312 14.2188C27.9062 14.5938 27.1875 14.875 26.4688 15.0312C25.8438 14.375 25 14 24.0625 14C22.25 14 20.7812 15.4688 20.7812 17.2812C20.7812 17.5312 20.8125 17.7812 20.875 18.0312C18.1562 17.875 15.7188 16.5625 14.0938 14.5938C13.8125 15.0625 13.6562 15.625 13.6562 16.25C13.6562 17.375 14.2188 18.375 15.125 18.9688C14.5938 18.9375 14.0625 18.8125 13.625 18.5625V18.5938C13.625 20.1875 14.75 21.5 16.25 21.8125C16 21.875 15.6875 21.9375 15.4062 21.9375C15.1875 21.9375 15 21.9062 14.7812 21.875C15.1875 23.1875 16.4062 24.125 17.8438 24.1562C16.7188 25.0312 15.3125 25.5625 13.7812 25.5625C13.5 25.5625 13.25 25.5312 13 25.5C14.4375 26.4375 16.1562 26.9688 18.0312 26.9688C24.0625 26.9688 27.3438 22 27.3438 17.6562C27.3438 17.5 27.3438 17.375 27.3438 17.2188Z" fill="white"/>
</svg>
