<svg width="31" height="21" viewBox="0 0 31 21" fill="none" xmlns="http://www.w3.org/2000/svg">
<path id="Vector" d="M15.532 0.00105475C11.882 -0.00894525 10.081 0.0560606 3 0.0320606C1.627 0.0320606 0.5 1.12503 0.5 2.50203V17.502C0.5 18.877 1.624 20.002 3 20.002L20.063 20.0321C21.44 20.0321 22.438 18.8681 22.438 17.5321V15.345L24.657 17.845C24.7023 17.9015 24.7592 17.9474 24.824 17.9797C24.8887 18.012 24.9597 18.0299 25.032 18.0321H29.906C30.0386 18.0321 30.1658 17.9793 30.2596 17.8856C30.3533 17.7918 30.406 17.6647 30.406 17.5321V2.53206C30.406 2.39945 30.3533 2.27219 30.2596 2.17842C30.1658 2.08465 30.0386 2.03206 29.906 2.03206H25.031C24.979 2.02379 24.926 2.02379 24.874 2.03206C24.7727 2.06638 24.6851 2.13226 24.624 2.22005L22.437 5.03206V2.53206C22.437 1.19606 21.441 0.0320606 20.062 0.0320606C18.17 0.00906062 16.747 0.00203132 15.531 0.00203132L15.532 0.00105475ZM15.562 1.00105C16.778 1.00105 18.174 1.01106 20.062 1.03206C20.9 1.03206 21.438 1.65206 21.438 2.53206V17.5321C21.438 18.4121 20.902 19.0331 20.063 19.0321L3 19.002C2.161 19.002 1.5 18.341 1.5 17.502V2.50203C1.5 1.66203 2.158 1.03206 3 1.03206C10.087 1.05606 11.916 0.996031 15.563 1.00203L15.562 1.00105ZM25.25 3.03206H29.407V17.0321H25.282L22.438 13.814V6.65706L25.25 3.03206Z" fill="black"/>
</svg>
