<svg width="46" height="46" viewBox="0 0 46 46" fill="none" xmlns="http://www.w3.org/2000/svg">
<g id="fluent:chess-20-filled">
<path id="Vector" d="M24.1496 4.60001C23.8446 4.60001 23.5521 4.72117 23.3364 4.93683C23.1208 5.1525 22.9996 5.44501 22.9996 5.75001V11.73C22.9996 14.8971 25.1317 17.5628 28.0366 18.377C27.5306 24.679 25.709 29.3825 24.2163 32.2828C24.6395 32.7796 25.0374 33.1499 25.3479 33.4098C26.5416 34.408 27.5996 36.0341 27.5996 38.0627C27.6012 39.2636 27.2174 40.4334 26.5048 41.4H39.0996C40.0146 41.4 40.8921 41.0365 41.5391 40.3895C42.1861 39.7425 42.5496 38.865 42.5496 37.95V37.2439C42.5496 36.4435 42.2759 35.7052 41.855 35.1003C40.613 33.3132 37.0963 27.5333 36.3603 18.3747C37.81 17.9683 39.0871 17.0991 39.9969 15.8994C40.9067 14.6998 41.3993 13.2356 41.3996 11.73V5.75001C41.3996 5.44501 41.2785 5.1525 41.0628 4.93683C40.8471 4.72117 40.5546 4.60001 40.2496 4.60001H38.5246C38.0671 4.60001 37.6283 4.78175 37.3048 5.10525C36.9813 5.42875 36.7996 5.86751 36.7996 6.32501V8.05001C36.7999 8.20103 36.7705 8.35063 36.713 8.49027C36.6554 8.62991 36.571 8.75685 36.4644 8.86385C36.2492 9.07995 35.9569 9.2017 35.6519 9.20231C35.3469 9.20292 35.0542 9.08234 34.8381 8.86711C34.622 8.65187 34.5002 8.35961 34.4996 8.05461V8.05001L34.4904 6.31581C34.488 5.8599 34.3052 5.4235 33.9819 5.10199C33.6587 4.78048 33.2213 4.6 32.7654 4.60001H31.6338C31.1779 4.6 30.7405 4.78048 30.4173 5.10199C30.0941 5.4235 29.9112 5.8599 29.9088 6.31581L29.8996 8.05461C29.899 8.35961 29.7773 8.65187 29.5612 8.86711C29.3451 9.08234 29.0523 9.20292 28.7473 9.20231C28.4423 9.2017 28.15 9.07995 27.9348 8.86385C27.7196 8.64775 27.599 8.35501 27.5996 8.05001V6.32501C27.5996 5.86751 27.4179 5.42875 27.0944 5.10525C26.7709 4.78175 26.3321 4.60001 25.8746 4.60001H24.1496ZM14.9496 11.5C13.6176 11.5 12.3141 11.8856 11.1964 12.6101C10.0788 13.3347 9.19469 14.3672 8.65092 15.5832C8.10716 16.7991 7.92695 18.1464 8.13206 19.4625C8.33717 20.7786 8.91882 22.0072 9.80681 23H9.19961C8.58961 23 8.0046 23.2423 7.57326 23.6737C7.14193 24.105 6.89961 24.69 6.89961 25.3C6.89961 25.91 7.14193 26.495 7.57326 26.9264C8.0046 27.3577 8.58961 27.6 9.19961 27.6H10.3956C9.54001 31.7354 7.28371 34.1228 6.02561 35.1739C5.22981 35.8409 4.59961 36.8667 4.59961 38.0627C4.59961 39.905 6.09461 41.4 7.93691 41.4H21.9646C23.8046 41.4 25.2996 39.905 25.2996 38.0627C25.2996 36.8667 24.6694 35.8409 23.8736 35.1739C22.6155 34.1228 20.3592 31.7354 19.5036 27.6H20.6996C21.3096 27.6 21.8946 27.3577 22.326 26.9264C22.7573 26.495 22.9996 25.91 22.9996 25.3C22.9996 24.69 22.7573 24.105 22.326 23.6737C21.8946 23.2423 21.3096 23 20.6996 23H20.0924C20.9804 22.0072 21.562 20.7786 21.7672 19.4625C21.9723 18.1464 21.7921 16.7991 21.2483 15.5832C20.7045 14.3672 19.8204 13.3347 18.7028 12.6101C17.5851 11.8856 16.2816 11.5 14.9496 11.5Z" fill="white"/>
</g>
</svg>
