<svg width="46" height="46" viewBox="0 0 46 46" fill="none" xmlns="http://www.w3.org/2000/svg">
<g id="ph:ruler-fill">
<path id="Vector" d="M42.2845 17.25L17.2504 42.2823C16.9834 42.5493 16.6664 42.7611 16.3176 42.9057C15.9687 43.0502 15.5948 43.1246 15.2172 43.1246C14.8396 43.1246 14.4657 43.0502 14.1169 42.9057C13.768 42.7611 13.451 42.5493 13.1841 42.2823L3.71632 32.8163C3.44929 32.5493 3.23746 32.2324 3.09293 31.8835C2.94841 31.5347 2.87402 31.1608 2.87402 30.7832C2.87402 30.4056 2.94841 30.0316 3.09293 29.6828C3.23746 29.3339 3.44929 29.017 3.71632 28.75L8.95781 23.5085C9.02456 23.4417 9.10383 23.3887 9.19109 23.3525C9.27834 23.3163 9.37187 23.2977 9.46632 23.2977C9.56078 23.2977 9.65431 23.3163 9.74156 23.3525C9.82882 23.3887 9.90809 23.4417 9.97484 23.5085L16.2334 29.767C16.3731 29.9067 16.5402 30.0161 16.7241 30.0883C16.908 30.1605 17.1048 30.194 17.3023 30.1868C17.4997 30.1795 17.6935 30.1316 17.8717 30.0461C18.0498 29.9606 18.2084 29.8393 18.3375 29.6898C18.5736 29.405 18.6936 29.0417 18.6736 28.6723C18.6536 28.3029 18.4951 27.9547 18.2297 27.697L12.0071 21.4744C11.8727 21.3397 11.7972 21.1572 11.7972 20.9668C11.7972 20.7765 11.8727 20.594 12.0071 20.4592L14.7024 17.7639C14.7692 17.6971 14.8484 17.6441 14.9357 17.6079C15.023 17.5717 15.1165 17.5531 15.2109 17.5531C15.3054 17.5531 15.3989 17.5717 15.4862 17.6079C15.5734 17.6441 15.6527 17.6971 15.7194 17.7639L21.978 24.0224C22.1177 24.1621 22.2848 24.2714 22.4687 24.3437C22.6526 24.4159 22.8494 24.4494 23.0469 24.4422C23.2443 24.4349 23.4382 24.387 23.6163 24.3015C23.7944 24.216 23.953 24.0947 24.0821 23.9451C24.3182 23.6604 24.4382 23.297 24.4182 22.9277C24.3982 22.5583 24.2397 22.2101 23.9743 21.9524L17.7589 15.7244C17.6245 15.5897 17.549 15.4072 17.549 15.2168C17.549 15.0265 17.6245 14.844 17.7589 14.7092L20.4542 12.0139C20.589 11.8795 20.7715 11.804 20.9618 11.804C21.1522 11.804 21.3347 11.8795 21.4694 12.0139L27.728 18.2724C27.8677 18.4124 28.0349 18.522 28.219 18.5944C28.4031 18.6668 28.6001 18.7004 28.7978 18.6931C28.9955 18.6859 29.1895 18.6379 29.3678 18.5522C29.5461 18.4665 29.7048 18.345 29.8339 18.1951C30.0697 17.9102 30.1895 17.5467 30.1691 17.1773C30.1488 16.808 29.99 16.4598 29.7243 16.2024L23.5089 9.97445C23.3745 9.8397 23.299 9.65715 23.299 9.46683C23.299 9.27651 23.3745 9.09395 23.5089 8.95921L28.7504 3.71773C29.0174 3.45069 29.3343 3.23886 29.6832 3.09434C30.032 2.94981 30.4059 2.87543 30.7836 2.87543C31.1612 2.87543 31.5351 2.94981 31.8839 3.09434C32.2328 3.23886 32.5497 3.45069 32.8167 3.71773L42.2845 13.1837C42.5515 13.4506 42.7633 13.7676 42.9078 14.1165C43.0524 14.4653 43.1267 14.8392 43.1267 15.2168C43.1267 15.5944 43.0524 15.9683 42.9078 16.3172C42.7633 16.666 42.5515 16.983 42.2845 17.25Z" fill="white"/>
</g>
</svg>
