<svg width="46" height="46" viewBox="0 0 46 46" fill="none" xmlns="http://www.w3.org/2000/svg">
<g id="heroicons-solid:lightning-bolt" clip-path="url(#clip0_78_1309)">
<path id="Vector" fill-rule="evenodd" clip-rule="evenodd" d="M6.90002 43.6H39.1001C41.6899 43.6 43.5299 42.4707 44.6477 40.9182C45.6781 39.4853 46.0001 37.8362 46.0001 36.7V22.9C46.0001 22.29 45.7578 21.705 45.3265 21.2736C44.8951 20.8423 44.3101 20.6 43.7001 20.6H36.8001V9.09997C36.8001 7.26997 36.0731 5.51492 34.7791 4.22092C33.4851 2.92692 31.7301 2.19995 29.9001 2.19995H6.90002C5.07002 2.19995 3.31497 2.92692 2.02097 4.22092C0.726964 5.51492 0 7.26997 0 9.09997V36.7C0 37.8339 0.322001 39.4853 1.3524 40.9182C2.47021 42.473 4.31021 43.6 6.90002 43.6ZM39.1001 25.2C39.7101 25.2 40.2951 25.4423 40.7264 25.8737C41.1578 26.305 41.4001 26.89 41.4001 27.5V36.7C41.4001 37.31 41.1578 37.895 40.7264 38.3264C40.2951 38.7577 39.7101 39 39.1001 39C38.4901 39 37.9051 38.7577 37.4737 38.3264C37.0424 37.895 36.8001 37.31 36.8001 36.7V27.5C36.8001 26.89 37.0424 26.305 37.4737 25.8737C37.9051 25.4423 38.4901 25.2 39.1001 25.2ZM16.1 18.3C16.1 17.69 16.3424 17.105 16.7737 16.6736C17.205 16.2423 17.79 16 18.4 16C19.01 16 19.5951 16.2423 20.0264 16.6736C20.4577 17.105 20.7 17.69 20.7 18.3C20.7 18.91 20.4577 19.495 20.0264 19.9263C19.5951 20.3577 19.01 20.6 18.4 20.6C17.79 20.6 17.205 20.3577 16.7737 19.9263C16.3424 19.495 16.1 18.91 16.1 18.3ZM18.4 11.4C16.57 11.4 14.815 12.1269 13.521 13.4209C12.227 14.7149 11.5 16.47 11.5 18.3C11.5 20.13 12.227 21.885 13.521 23.179C14.815 24.473 16.57 25.2 18.4 25.2C20.23 25.2 21.9851 24.473 23.2791 23.179C24.5731 21.885 25.3001 20.13 25.3001 18.3C25.3001 16.47 24.5731 14.7149 23.2791 13.4209C21.9851 12.1269 20.23 11.4 18.4 11.4ZM11.5 29.8C10.89 29.8 10.305 30.0423 9.87368 30.4737C9.44234 30.905 9.20002 31.49 9.20002 32.1C9.20002 32.71 9.44234 33.295 9.87368 33.7264C10.305 34.1577 10.89 34.4 11.5 34.4H25.3001C25.9101 34.4 26.4951 34.1577 26.9264 33.7264C27.3577 33.295 27.6001 32.71 27.6001 32.1C27.6001 31.49 27.3577 30.905 26.9264 30.4737C26.4951 30.0423 25.9101 29.8 25.3001 29.8H11.5Z" fill="white"/>
</g>
<defs>
<clipPath id="clip0_78_1309">
<rect width="46" height="46" fill="white"/>
</clipPath>
</defs>
</svg>
