<svg width="46" height="46" viewBox="0 0 46 46" fill="none" xmlns="http://www.w3.org/2000/svg">
<g id="fluent:target-arrow-16-filled">
<path id="Vector" d="M34.4996 4.31251C34.5001 4.02782 34.4161 3.7494 34.2582 3.51253C34.1002 3.27566 33.8755 3.09102 33.6126 2.982C33.3496 2.87299 33.0601 2.84452 32.781 2.9002C32.5018 2.95588 32.2454 3.0932 32.0443 3.29476L26.2943 9.04476C26.1609 9.1785 26.0552 9.33723 25.9832 9.51186C25.9112 9.68649 25.8743 9.87361 25.8746 10.0625V18.0924L23.7442 20.2199C23.3181 20.1068 22.8716 20.093 22.4393 20.1797C22.0069 20.2663 21.6003 20.451 21.2506 20.7196C20.9009 20.9882 20.6175 21.3335 20.4223 21.7288C20.2271 22.1242 20.1253 22.5591 20.1246 23C20.1248 23.4092 20.2123 23.8136 20.3813 24.1862C20.5503 24.5588 20.7969 24.8911 21.1046 25.1607C21.4123 25.4304 21.774 25.6313 22.1655 25.75C22.5571 25.8687 22.9695 25.9025 23.3751 25.8491C23.7808 25.7956 24.1703 25.6562 24.5178 25.4402C24.8652 25.2241 25.1626 24.9364 25.3899 24.5962C25.6173 24.256 25.7694 23.8712 25.8361 23.4676C25.9028 23.0639 25.8826 22.6506 25.7768 22.2554L27.9072 20.125H35.9371C36.126 20.1253 36.3131 20.0884 36.4877 20.0164C36.6624 19.9444 36.8211 19.8387 36.9549 19.7053L42.7048 13.9553C42.9064 13.7542 43.0437 13.4978 43.0994 13.2187C43.1551 12.9395 43.1266 12.65 43.0176 12.3871C42.9086 12.1241 42.7239 11.8994 42.4871 11.7415C42.2502 11.5835 41.9718 11.4995 41.6871 11.5H34.4996V4.31251ZM40.0886 20.6368C40.5833 24.2166 39.9412 27.8614 38.2529 31.0567C36.5647 34.252 33.9155 36.8364 30.6794 38.445C27.4433 40.0536 23.7836 40.6053 20.2171 40.022C16.6506 39.4388 13.3574 37.7502 10.8022 35.1946C8.24706 32.6389 6.55909 29.3453 5.97657 25.7787C5.39404 22.2121 5.94639 18.5526 7.55565 15.3168C9.1649 12.081 11.7498 9.43229 14.9454 7.74464C18.141 6.05699 21.786 5.4156 25.3657 5.91101L24.2646 7.01213C23.8637 7.41255 23.5456 7.88804 23.3286 8.41144C23.1115 8.93484 22.9997 9.49589 22.9996 10.0625C20.4408 10.0625 17.9395 10.8213 15.8119 12.2429C13.6843 13.6645 12.0261 15.685 11.0469 18.049C10.0677 20.4131 9.81149 23.0144 10.3107 25.524C10.8099 28.0336 12.0421 30.3389 13.8514 32.1482C15.6607 33.9575 17.966 35.1897 20.4756 35.6889C22.9852 36.1881 25.5865 35.9319 27.9506 34.9527C30.3146 33.9735 32.3351 32.3153 33.7567 30.1877C35.1783 28.0601 35.9371 25.5588 35.9371 23C37.0805 22.999 38.1766 22.544 38.9846 21.735L40.0886 20.6368ZM22.9996 12.9375C21.0094 12.9375 19.0639 13.5277 17.4092 14.6333C15.7544 15.739 14.4647 17.3106 13.7031 19.1493C12.9415 20.9879 12.7422 23.0112 13.1304 24.9631C13.5187 26.915 14.4771 28.708 15.8843 30.1153C17.2916 31.5225 19.0846 32.4809 21.0365 32.8692C22.9884 33.2574 25.0117 33.0582 26.8504 32.2965C28.689 31.5349 30.2606 30.2452 31.3663 28.5904C32.4719 26.9357 33.0621 24.9902 33.0621 23H29.0975L28.7381 23.3594C28.669 24.4639 28.2826 25.525 27.6254 26.4153C26.9681 27.3056 26.0679 27.9874 25.0327 28.3787C23.9976 28.7701 22.8715 28.8544 21.7896 28.6216C20.7077 28.3888 19.716 27.8487 18.9335 27.0661C18.1509 26.2836 17.6109 25.2919 17.378 24.21C17.1452 23.1281 17.2295 22.002 17.6209 20.9669C18.0122 19.9317 18.694 19.0315 19.5843 18.3743C20.4746 17.717 21.5357 17.3306 22.6402 17.2615L22.9996 16.9021V12.9375Z" fill="white"/>
</g>
</svg>
